<?xml version="1.0" encoding="UTF-8"?>
<!DOCTYPE svg PUBLIC "-//W3C//DTD SVG 1.1//EN" "http://www.w3.org/Graphics/SVG/1.1/DTD/svg11.dtd">
<svg version="1.2" width="376.3mm" height="376.3mm" viewBox="0 0 37630 37630" preserveAspectRatio="xMidYMid" fill-rule="evenodd" stroke-width="28.222" stroke-linejoin="round" xmlns="http://www.w3.org/2000/svg" xmlns:ooo="http://xml.openoffice.org/svg/export" xmlns:xlink="http://www.w3.org/1999/xlink" xmlns:presentation="http://sun.com/xmlns/staroffice/presentation" xmlns:smil="http://www.w3.org/2001/SMIL20/" xmlns:anim="urn:oasis:names:tc:opendocument:xmlns:animation:1.0" xml:space="preserve">
 <defs class="ClipPathGroup">
  <clipPath id="presentation_clip_path" clipPathUnits="userSpaceOnUse">
   <rect x="0" y="0" width="37630" height="37630"/>
  </clipPath>
  <clipPath id="presentation_clip_path_shrink" clipPathUnits="userSpaceOnUse">
   <rect x="37" y="37" width="37555" height="37555"/>
  </clipPath>
 </defs>
 <defs class="TextShapeIndex">
  <g ooo:slide="id1" ooo:id-list="id3 id4 id5 id6 id7 id8 id9 id10 id11 id12 id13 id14 id15 id16 id17 id18 id19 id20 id21 id22 id23 id24 id25 id26 id27 id28 id29 id30 id31 id32 id33 id34 id35 id36 id37 id38 id39 id40 id41 id42 id43 id44 id45 id46 id47 id48 id49 id50 id51 id52 id53 id54 id55 id56 id57 id58 id59 id60 id61 id62 id63 id64 id65 id66 id67"/>
 </defs>
 <defs class="EmbeddedBulletChars">
  <g id="bullet-char-template-57356" transform="scale(0.00048828125,-0.00048828125)">
   <path d="M 580,1141 L 1163,571 580,0 -4,571 580,1141 Z"/>
  </g>
  <g id="bullet-char-template-57354" transform="scale(0.00048828125,-0.00048828125)">
   <path d="M 8,1128 L 1137,1128 1137,0 8,0 8,1128 Z"/>
  </g>
  <g id="bullet-char-template-10146" transform="scale(0.00048828125,-0.00048828125)">
   <path d="M 174,0 L 602,739 174,1481 1456,739 174,0 Z M 1358,739 L 309,1346 659,739 1358,739 Z"/>
  </g>
  <g id="bullet-char-template-10132" transform="scale(0.00048828125,-0.00048828125)">
   <path d="M 2015,739 L 1276,0 717,0 1260,543 174,543 174,936 1260,936 717,1481 1274,1481 2015,739 Z"/>
  </g>
  <g id="bullet-char-template-10007" transform="scale(0.00048828125,-0.00048828125)">
   <path d="M 0,-2 C -7,14 -16,27 -25,37 L 356,567 C 262,823 215,952 215,954 215,979 228,992 255,992 264,992 276,990 289,987 310,991 331,999 354,1012 L 381,999 492,748 772,1049 836,1024 860,1049 C 881,1039 901,1025 922,1006 886,937 835,863 770,784 769,783 710,716 594,584 L 774,223 C 774,196 753,168 711,139 L 727,119 C 717,90 699,76 672,76 641,76 570,178 457,381 L 164,-76 C 142,-110 111,-127 72,-127 30,-127 9,-110 8,-76 1,-67 -2,-52 -2,-32 -2,-23 -1,-13 0,-2 Z"/>
  </g>
  <g id="bullet-char-template-10004" transform="scale(0.00048828125,-0.00048828125)">
   <path d="M 285,-33 C 182,-33 111,30 74,156 52,228 41,333 41,471 41,549 55,616 82,672 116,743 169,778 240,778 293,778 328,747 346,684 L 369,508 C 377,444 397,411 428,410 L 1163,1116 C 1174,1127 1196,1133 1229,1133 1271,1133 1292,1118 1292,1087 L 1292,965 C 1292,929 1282,901 1262,881 L 442,47 C 390,-6 338,-33 285,-33 Z"/>
  </g>
  <g id="bullet-char-template-9679" transform="scale(0.00048828125,-0.00048828125)">
   <path d="M 813,0 C 632,0 489,54 383,161 276,268 223,411 223,592 223,773 276,916 383,1023 489,1130 632,1184 813,1184 992,1184 1136,1130 1245,1023 1353,916 1407,772 1407,592 1407,412 1353,268 1245,161 1136,54 992,0 813,0 Z"/>
  </g>
  <g id="bullet-char-template-8226" transform="scale(0.00048828125,-0.00048828125)">
   <path d="M 346,457 C 273,457 209,483 155,535 101,586 74,649 74,723 74,796 101,859 155,911 209,963 273,989 346,989 419,989 480,963 531,910 582,859 608,796 608,723 608,648 583,586 532,535 482,483 420,457 346,457 Z"/>
  </g>
  <g id="bullet-char-template-8211" transform="scale(0.00048828125,-0.00048828125)">
   <path d="M -4,459 L 1135,459 1135,606 -4,606 -4,459 Z"/>
  </g>
  <g id="bullet-char-template-61548" transform="scale(0.00048828125,-0.00048828125)">
   <path d="M 173,740 C 173,903 231,1043 346,1159 462,1274 601,1332 765,1332 928,1332 1067,1274 1183,1159 1299,1043 1357,903 1357,740 1357,577 1299,437 1183,322 1067,206 928,148 765,148 601,148 462,206 346,322 231,437 173,577 173,740 Z"/>
  </g>
 </defs>
 <defs class="TextEmbeddedBitmaps"/>
 <g>
  <g id="id2" class="Master_Slide">
   <g id="bg-id2" class="Background"/>
   <g id="bo-id2" class="BackgroundObjects"/>
  </g>
 </g>
 <g class="SlideGroup">
  <g>
   <g id="container-id1">
    <g id="id1" class="Slide" clip-path="url(#presentation_clip_path)">
     <g class="Page">
      <g class="com.sun.star.drawing.PolyPolygonShape">
       <g id="id3">
        <rect class="BoundingBox" stroke="none" fill="none" x="6244" y="6220" width="25151" height="13233"/>
       </g>
      </g>
      <g class="com.sun.star.drawing.PolyPolygonShape">
       <g id="id4">
        <rect class="BoundingBox" stroke="none" fill="none" x="6244" y="6220" width="25151" height="13231"/>
       </g>
      </g>
      <g class="com.sun.star.drawing.ClosedBezierShape">
       <g id="id5">
        <rect class="BoundingBox" stroke="none" fill="none" x="6244" y="6220" width="25148" height="13231"/>
        <path fill="rgb(144,231,252)" stroke="none" d="M 26426,19449 L 11209,19449 C 8840,19449 6870,17623 6693,15259 L 6244,6220 31391,6220 30942,15259 C 30765,17623 28796,19449 26426,19449 Z M 26426,19449 L 26426,19449 Z"/>
       </g>
      </g>
      <g class="com.sun.star.drawing.PolyPolygonShape">
       <g id="id6">
        <rect class="BoundingBox" stroke="none" fill="none" x="7199" y="6220" width="24196" height="13233"/>
       </g>
      </g>
      <g class="com.sun.star.drawing.PolyPolygonShape">
       <g id="id7">
        <rect class="BoundingBox" stroke="none" fill="none" x="7200" y="6220" width="24193" height="13231"/>
       </g>
      </g>
      <g class="com.sun.star.drawing.ClosedBezierShape">
       <g id="id8">
        <rect class="BoundingBox" stroke="none" fill="none" x="7200" y="6220" width="24192" height="13231"/>
        <path fill="rgb(88,213,234)" stroke="none" d="M 24739,6220 L 24412,12839 C 24233,15203 22263,17030 19894,17030 L 7200,17030 C 7961,18476 9479,19449 11206,19449 L 26423,19449 C 28793,19449 30762,17623 30941,15259 L 31391,6220 24739,6220 Z M 24739,6220 L 24739,6220 Z"/>
       </g>
      </g>
      <g class="com.sun.star.drawing.PolyPolygonShape">
       <g id="id9">
        <rect class="BoundingBox" stroke="none" fill="none" x="3829" y="2351" width="29984" height="3866"/>
       </g>
      </g>
      <g class="com.sun.star.drawing.PolyPolygonShape">
       <g id="id10">
        <rect class="BoundingBox" stroke="none" fill="none" x="3827" y="2351" width="29982" height="3864"/>
       </g>
      </g>
      <g class="com.sun.star.drawing.ClosedBezierShape">
       <g id="id11">
        <rect class="BoundingBox" stroke="none" fill="none" x="3829" y="2350" width="29979" height="3864"/>
        <path fill="rgb(70,91,125)" stroke="none" d="M 33131,6213 L 4504,6213 C 4130,6213 3829,5912 3829,5538 L 3829,3026 C 3829,2652 4130,2351 4504,2351 L 33131,2351 C 33505,2351 33806,2652 33806,3026 L 33806,5538 C 33806,5912 33505,6213 33131,6213 Z M 33131,6213 L 33131,6213 Z"/>
       </g>
      </g>
      <g class="com.sun.star.drawing.PolyPolygonShape">
       <g id="id12">
        <rect class="BoundingBox" stroke="none" fill="none" x="3829" y="2351" width="29984" height="3866"/>
       </g>
      </g>
      <g class="com.sun.star.drawing.PolyPolygonShape">
       <g id="id13">
        <rect class="BoundingBox" stroke="none" fill="none" x="3827" y="2351" width="29982" height="3864"/>
       </g>
      </g>
      <g class="com.sun.star.drawing.ClosedBezierShape">
       <g id="id14">
        <rect class="BoundingBox" stroke="none" fill="none" x="3829" y="2350" width="29979" height="3864"/>
        <path fill="rgb(58,76,104)" stroke="none" d="M 33112,2351 L 30485,2351 30485,3924 C 30485,4308 30175,4618 29791,4618 L 3829,4618 3829,5519 C 3829,5903 4139,6213 4523,6213 L 33112,6213 C 33496,6213 33806,5903 33806,5519 L 33806,3045 C 33806,2661 33496,2351 33112,2351 Z M 33112,2351 L 33112,2351 Z"/>
       </g>
      </g>
      <g class="com.sun.star.drawing.PolyPolygonShape">
       <g id="id15">
        <rect class="BoundingBox" stroke="none" fill="none" x="15380" y="3906" width="6878" height="2311"/>
       </g>
      </g>
      <g class="com.sun.star.drawing.PolyPolygonShape">
       <g id="id16">
        <rect class="BoundingBox" stroke="none" fill="none" x="15380" y="3909" width="6876" height="2308"/>
       </g>
      </g>
      <g class="com.sun.star.drawing.ClosedBezierShape">
       <g id="id17">
        <rect class="BoundingBox" stroke="none" fill="none" x="15380" y="3908" width="6875" height="2308"/>
        <path fill="rgb(103,127,158)" stroke="none" d="M 20875,3909 L 16759,3909 C 15996,3909 15380,4527 15380,5288 L 15380,6215 22254,6215 22254,5288 C 22254,4527 21637,3909 20875,3909 Z M 20875,3909 L 20875,3909 Z"/>
       </g>
      </g>
      <g class="com.sun.star.drawing.PolyPolygonShape">
       <g id="id18">
        <rect class="BoundingBox" stroke="none" fill="none" x="18029" y="8260" width="10878" height="9726"/>
       </g>
      </g>
      <g class="com.sun.star.drawing.PolyPolygonShape">
       <g id="id19">
        <rect class="BoundingBox" stroke="none" fill="none" x="18029" y="8264" width="10876" height="9722"/>
       </g>
      </g>
      <g class="com.sun.star.drawing.PolyPolygonShape">
       <g id="id20">
        <rect class="BoundingBox" stroke="none" fill="none" x="18886" y="8260" width="10021" height="9726"/>
       </g>
      </g>
      <g class="com.sun.star.drawing.PolyPolygonShape">
       <g id="id21">
        <rect class="BoundingBox" stroke="none" fill="none" x="18885" y="8264" width="10020" height="9722"/>
       </g>
      </g>
      <g class="com.sun.star.drawing.PolyPolygonShape">
       <g id="id22">
        <rect class="BoundingBox" stroke="none" fill="none" x="18835" y="3906" width="3422" height="2311"/>
       </g>
      </g>
      <g class="com.sun.star.drawing.PolyPolygonShape">
       <g id="id23">
        <rect class="BoundingBox" stroke="none" fill="none" x="18835" y="3909" width="3421" height="2308"/>
       </g>
      </g>
      <g class="com.sun.star.drawing.ClosedBezierShape">
       <g id="id24">
        <rect class="BoundingBox" stroke="none" fill="none" x="18835" y="3908" width="3418" height="2308"/>
        <path fill="rgb(88,116,158)" stroke="none" d="M 20873,3909 L 18835,3909 C 19598,3909 20214,4527 20214,5288 L 20214,6215 22252,6215 22252,5288 C 22252,4527 21635,3909 20873,3909 Z M 20873,3909 L 20873,3909 Z"/>
       </g>
      </g>
      <g class="com.sun.star.drawing.PolyPolygonShape">
       <g id="id25">
        <rect class="BoundingBox" stroke="none" fill="none" x="8444" y="10740" width="8219" height="7231"/>
       </g>
      </g>
      <g class="com.sun.star.drawing.PolyPolygonShape">
       <g id="id26">
        <rect class="BoundingBox" stroke="none" fill="none" x="8444" y="10740" width="8217" height="7230"/>
       </g>
      </g>
      <g class="com.sun.star.drawing.PolyPolygonShape">
       <g id="id27">
        <rect class="BoundingBox" stroke="none" fill="none" x="9644" y="17026" width="5818" height="944"/>
       </g>
      </g>
      <g class="com.sun.star.drawing.PolyPolygonShape">
       <g id="id28">
        <rect class="BoundingBox" stroke="none" fill="none" x="9644" y="17026" width="5816" height="943"/>
       </g>
      </g>
      <g class="com.sun.star.drawing.PolyPolygonShape">
       <g id="id29">
        <rect class="BoundingBox" stroke="none" fill="none" x="11980" y="8770" width="2723" height="3284"/>
       </g>
      </g>
      <g class="com.sun.star.drawing.PolyPolygonShape">
       <g id="id30">
        <rect class="BoundingBox" stroke="none" fill="none" x="11980" y="8770" width="2721" height="3282"/>
       </g>
      </g>
      <g class="com.sun.star.drawing.PolyPolygonShape">
       <g id="id31">
        <rect class="BoundingBox" stroke="none" fill="none" x="10101" y="7884" width="2676" height="2702"/>
       </g>
      </g>
      <g class="com.sun.star.drawing.PolyPolygonShape">
       <g id="id32">
        <rect class="BoundingBox" stroke="none" fill="none" x="10101" y="7885" width="2674" height="2699"/>
       </g>
      </g>
      <g class="com.sun.star.drawing.PolyPolygonShape">
       <g id="id33">
        <rect class="BoundingBox" stroke="none" fill="none" x="10121" y="7884" width="2656" height="2702"/>
       </g>
      </g>
      <g class="com.sun.star.drawing.PolyPolygonShape">
       <g id="id34">
        <rect class="BoundingBox" stroke="none" fill="none" x="10121" y="7885" width="2656" height="2699"/>
       </g>
      </g>
      <g class="com.sun.star.drawing.PolyPolygonShape">
       <g id="id35">
        <rect class="BoundingBox" stroke="none" fill="none" x="10685" y="22880" width="16357" height="8871"/>
       </g>
      </g>
      <g class="com.sun.star.drawing.PolyPolygonShape">
       <g id="id36">
        <rect class="BoundingBox" stroke="none" fill="none" x="10685" y="22880" width="16355" height="8871"/>
       </g>
      </g>
      <g class="com.sun.star.drawing.ClosedBezierShape">
       <g id="id37">
        <rect class="BoundingBox" stroke="none" fill="none" x="10686" y="22880" width="16353" height="8868"/>
        <path fill="rgb(221,82,152)" stroke="none" d="M 20668,31747 L 17056,31747 C 13545,31747 10686,28888 10686,25374 L 10686,22880 13312,22880 13312,25374 C 13312,27439 14991,29119 17056,29119 L 20668,29119 C 22733,29119 24412,27439 24412,25374 L 24412,22880 27038,22880 27038,25374 C 27038,28888 24181,31747 20668,31747 Z M 20668,31747 L 20668,31747 Z"/>
       </g>
      </g>
      <g class="com.sun.star.drawing.PolyPolygonShape">
       <g id="id38">
        <rect class="BoundingBox" stroke="none" fill="none" x="12569" y="22880" width="14475" height="8871"/>
       </g>
      </g>
      <g class="com.sun.star.drawing.PolyPolygonShape">
       <g id="id39">
        <rect class="BoundingBox" stroke="none" fill="none" x="12571" y="22880" width="14472" height="8871"/>
       </g>
      </g>
      <g class="com.sun.star.drawing.ClosedBezierShape">
       <g id="id40">
        <rect class="BoundingBox" stroke="none" fill="none" x="12571" y="22880" width="14469" height="8868"/>
        <path fill="rgb(201,63,132)" stroke="none" d="M 25977,22880 L 25977,24525 C 25977,28039 23119,30897 19606,30897 L 15996,30897 C 14736,30897 13561,30528 12571,29895 13722,31038 15309,31747 17056,31747 L 20667,31747 C 24180,31747 27039,28888 27039,25374 L 27039,22880 25977,22880 Z M 25977,22880 L 25977,22880 Z"/>
       </g>
      </g>
      <g class="com.sun.star.drawing.PolyPolygonShape">
       <g id="id41">
        <rect class="BoundingBox" stroke="none" fill="none" x="15194" y="21009" width="7252" height="2516"/>
       </g>
      </g>
      <g class="com.sun.star.drawing.PolyPolygonShape">
       <g id="id42">
        <rect class="BoundingBox" stroke="none" fill="none" x="15195" y="21010" width="7248" height="2511"/>
       </g>
      </g>
      <g class="com.sun.star.drawing.ClosedBezierShape">
       <g id="id43">
        <rect class="BoundingBox" stroke="none" fill="none" x="15195" y="21010" width="7247" height="2511"/>
        <path fill="rgb(255,158,201)" stroke="none" d="M 20987,21010 L 16649,21010 C 15845,21010 15195,21661 15195,22465 L 15195,23520 22441,23520 22441,22465 C 22441,21661 21791,21010 20987,21010 Z M 20987,21010 L 20987,21010 Z"/>
       </g>
      </g>
      <g class="com.sun.star.drawing.PolyPolygonShape">
       <g id="id44">
        <rect class="BoundingBox" stroke="none" fill="none" x="18839" y="21009" width="3608" height="2516"/>
       </g>
      </g>
      <g class="com.sun.star.drawing.PolyPolygonShape">
       <g id="id45">
        <rect class="BoundingBox" stroke="none" fill="none" x="18839" y="21010" width="3606" height="2511"/>
       </g>
      </g>
      <g class="com.sun.star.drawing.ClosedBezierShape">
       <g id="id46">
        <rect class="BoundingBox" stroke="none" fill="none" x="18839" y="21010" width="3603" height="2511"/>
        <path fill="rgb(255,136,185)" stroke="none" d="M 20987,21010 L 18839,21010 C 19643,21010 20293,21661 20293,22465 L 20293,23520 22441,23520 22441,22465 C 22441,21661 21791,21010 20987,21010 Z M 20987,21010 L 20987,21010 Z"/>
       </g>
      </g>
      <g class="com.sun.star.drawing.PolyPolygonShape">
       <g id="id47">
        <rect class="BoundingBox" stroke="none" fill="none" x="6021" y="20469" width="25599" height="4588"/>
       </g>
      </g>
      <g class="com.sun.star.drawing.PolyPolygonShape">
       <g id="id48">
        <rect class="BoundingBox" stroke="none" fill="none" x="6021" y="20469" width="25598" height="4586"/>
       </g>
      </g>
      <g class="com.sun.star.drawing.PolyPolygonShape">
       <g id="id49">
        <rect class="BoundingBox" stroke="none" fill="none" x="6020" y="20469" width="25598" height="4584"/>
        <path fill="rgb(76,119,159)" stroke="none" d="M 6021,20469 L 31617,20469 31617,25052 6021,25052 6021,20469 Z M 6021,20469 L 6021,20469 Z"/>
       </g>
      </g>
      <g class="com.sun.star.drawing.PolyPolygonShape">
       <g id="id50">
        <rect class="BoundingBox" stroke="none" fill="none" x="4" y="19331" width="37638" height="2281"/>
       </g>
      </g>
      <g class="com.sun.star.drawing.PolyPolygonShape">
       <g id="id51">
        <rect class="BoundingBox" stroke="none" fill="none" x="4" y="19331" width="37636" height="2278"/>
       </g>
      </g>
      <g class="com.sun.star.drawing.ClosedBezierShape">
       <g id="id52">
        <rect class="BoundingBox" stroke="none" fill="none" x="4" y="19331" width="37636" height="2277"/>
        <path fill="rgb(209,255,255)" stroke="none" d="M 36502,21607 L 1139,21607 C 513,21607 4,21098 4,20469 4,19840 513,19331 1139,19331 L 36502,19331 C 37131,19331 37639,19840 37639,20469 37639,21098 37131,21607 36502,21607 Z M 36502,21607 L 36502,21607 Z"/>
       </g>
      </g>
      <g class="com.sun.star.drawing.PolyPolygonShape">
       <g id="id53">
        <rect class="BoundingBox" stroke="none" fill="none" x="34225" y="19334" width="3416" height="2281"/>
       </g>
      </g>
      <g class="com.sun.star.drawing.PolyPolygonShape">
       <g id="id54">
        <rect class="BoundingBox" stroke="none" fill="none" x="34225" y="19334" width="3414" height="2279"/>
       </g>
      </g>
      <g class="com.sun.star.drawing.ClosedBezierShape">
       <g id="id55">
        <rect class="BoundingBox" stroke="none" fill="none" x="34226" y="19333" width="3412" height="2278"/>
        <path fill="rgb(172,224,224)" stroke="none" d="M 36499,19334 L 34226,19334 C 34854,19334 35364,19843 35364,20472 35364,21099 34854,21610 34226,21610 L 36499,21610 C 37128,21610 37637,21099 37637,20472 37637,19843 37128,19334 36499,19334 Z M 36499,19334 L 36499,19334 Z"/>
       </g>
      </g>
      <g class="com.sun.star.drawing.PolyPolygonShape">
       <g id="id56">
        <rect class="BoundingBox" stroke="none" fill="none" x="3031" y="23914" width="31579" height="12731"/>
       </g>
      </g>
      <g class="com.sun.star.drawing.PolyPolygonShape">
       <g id="id57">
        <rect class="BoundingBox" stroke="none" fill="none" x="3031" y="23913" width="31578" height="12727"/>
       </g>
      </g>
      <g class="com.sun.star.drawing.ClosedBezierShape">
       <g id="id58">
        <rect class="BoundingBox" stroke="none" fill="none" x="3031" y="23913" width="31577" height="12727"/>
        <path fill="rgb(209,255,255)" stroke="none" d="M 33093,36639 L 4546,36639 C 3710,36639 3031,35961 3031,35123 L 3031,25429 C 3031,24593 3710,23914 4546,23914 L 33093,23914 C 33929,23914 34607,24593 34607,25429 L 34607,35123 C 34607,35961 33929,36639 33093,36639 Z M 33093,36639 L 33093,36639 Z"/>
       </g>
      </g>
      <g class="com.sun.star.drawing.PolyPolygonShape">
       <g id="id59">
        <rect class="BoundingBox" stroke="none" fill="none" x="30819" y="23914" width="3793" height="12731"/>
       </g>
      </g>
      <g class="com.sun.star.drawing.PolyPolygonShape">
       <g id="id60">
        <rect class="BoundingBox" stroke="none" fill="none" x="30819" y="23913" width="3791" height="12727"/>
       </g>
      </g>
      <g class="com.sun.star.drawing.ClosedBezierShape">
       <g id="id61">
        <rect class="BoundingBox" stroke="none" fill="none" x="30819" y="23913" width="3789" height="12727"/>
        <path fill="rgb(172,224,224)" stroke="none" d="M 33092,23914 L 30819,23914 C 31657,23914 32334,24593 32334,25429 L 32334,35123 C 32334,35961 31657,36639 30819,36639 L 33092,36639 C 33929,36639 34607,35961 34607,35123 L 34607,25429 C 34607,24593 33929,23914 33092,23914 Z M 33092,23914 L 33092,23914 Z"/>
       </g>
      </g>
      <g class="com.sun.star.drawing.PolyPolygonShape">
       <g id="id62">
        <rect class="BoundingBox" stroke="none" fill="none" x="8216" y="26524" width="10004" height="7581"/>
       </g>
      </g>
      <g class="com.sun.star.drawing.PolyPolygonShape">
       <g id="id63">
        <rect class="BoundingBox" stroke="none" fill="none" x="8219" y="26525" width="10002" height="7578"/>
       </g>
      </g>
      <g class="com.sun.star.drawing.ClosedBezierShape">
       <g id="id64">
        <rect class="BoundingBox" stroke="none" fill="none" x="8219" y="26524" width="9999" height="7578"/>
        <path fill="rgb(76,119,159)" stroke="none" d="M 17915,34101 L 8523,34101 C 8354,34101 8219,33966 8219,33797 L 8219,26829 C 8219,26660 8354,26525 8523,26525 L 17915,26525 C 18081,26525 18217,26660 18217,26829 L 18217,33797 C 18217,33966 18081,34101 17915,34101 Z M 17915,34101 L 17915,34101 Z"/>
       </g>
      </g>
      <g class="com.sun.star.drawing.PolyPolygonShape">
       <g id="id65">
        <rect class="BoundingBox" stroke="none" fill="none" x="20481" y="26524" width="3038" height="7581"/>
       </g>
      </g>
      <g class="com.sun.star.drawing.PolyPolygonShape">
       <g id="id66">
        <rect class="BoundingBox" stroke="none" fill="none" x="20484" y="26525" width="3034" height="7578"/>
       </g>
      </g>
      <g class="com.sun.star.drawing.ClosedBezierShape">
       <g id="id67">
        <rect class="BoundingBox" stroke="none" fill="none" x="20483" y="26524" width="3034" height="7578"/>
        <path fill="rgb(96,217,254)" stroke="none" d="M 23212,34101 L 20788,34101 C 20619,34101 20484,33966 20484,33797 L 20484,26829 C 20484,26660 20619,26525 20788,26525 L 23212,26525 C 23381,26525 23516,26660 23516,26829 L 23516,33797 C 23516,33966 23381,34101 23212,34101 Z M 23212,34101 L 23212,34101 Z"/>
       </g>
      </g>
     </g>
    </g>
   </g>
  </g>
 </g>
</svg>
