<?xml version="1.0" encoding="UTF-8"?>
<!DOCTYPE svg PUBLIC "-//W3C//DTD SVG 1.1//EN" "http://www.w3.org/Graphics/SVG/1.1/DTD/svg11.dtd">
<svg version="1.2" width="301.04mm" height="301.04mm" viewBox="0 0 30104 30104" preserveAspectRatio="xMidYMid" fill-rule="evenodd" stroke-width="28.222" stroke-linejoin="round" xmlns="http://www.w3.org/2000/svg" xmlns:ooo="http://xml.openoffice.org/svg/export" xmlns:xlink="http://www.w3.org/1999/xlink" xmlns:presentation="http://sun.com/xmlns/staroffice/presentation" xmlns:smil="http://www.w3.org/2001/SMIL20/" xmlns:anim="urn:oasis:names:tc:opendocument:xmlns:animation:1.0" xml:space="preserve">
 <defs class="ClipPathGroup">
  <clipPath id="presentation_clip_path" clipPathUnits="userSpaceOnUse">
   <rect x="0" y="0" width="30104" height="30104"/>
  </clipPath>
  <clipPath id="presentation_clip_path_shrink" clipPathUnits="userSpaceOnUse">
   <rect x="30" y="30" width="30044" height="30044"/>
  </clipPath>
 </defs>
 <defs class="TextShapeIndex">
  <g ooo:slide="id1" ooo:id-list="id3 id4 id5 id6 id7 id8 id9 id10 id11 id12 id13 id14 id15 id16 id17 id18 id19 id20 id21 id22 id23 id24 id25 id26 id27 id28 id29 id30 id31 id32 id33 id34 id35 id36 id37 id38 id39 id40 id41 id42 id43 id44 id45 id46 id47 id48 id49 id50"/>
 </defs>
 <defs class="EmbeddedBulletChars">
  <g id="bullet-char-template-57356" transform="scale(0.00048828125,-0.00048828125)">
   <path d="M 580,1141 L 1163,571 580,0 -4,571 580,1141 Z"/>
  </g>
  <g id="bullet-char-template-57354" transform="scale(0.00048828125,-0.00048828125)">
   <path d="M 8,1128 L 1137,1128 1137,0 8,0 8,1128 Z"/>
  </g>
  <g id="bullet-char-template-10146" transform="scale(0.00048828125,-0.00048828125)">
   <path d="M 174,0 L 602,739 174,1481 1456,739 174,0 Z M 1358,739 L 309,1346 659,739 1358,739 Z"/>
  </g>
  <g id="bullet-char-template-10132" transform="scale(0.00048828125,-0.00048828125)">
   <path d="M 2015,739 L 1276,0 717,0 1260,543 174,543 174,936 1260,936 717,1481 1274,1481 2015,739 Z"/>
  </g>
  <g id="bullet-char-template-10007" transform="scale(0.00048828125,-0.00048828125)">
   <path d="M 0,-2 C -7,14 -16,27 -25,37 L 356,567 C 262,823 215,952 215,954 215,979 228,992 255,992 264,992 276,990 289,987 310,991 331,999 354,1012 L 381,999 492,748 772,1049 836,1024 860,1049 C 881,1039 901,1025 922,1006 886,937 835,863 770,784 769,783 710,716 594,584 L 774,223 C 774,196 753,168 711,139 L 727,119 C 717,90 699,76 672,76 641,76 570,178 457,381 L 164,-76 C 142,-110 111,-127 72,-127 30,-127 9,-110 8,-76 1,-67 -2,-52 -2,-32 -2,-23 -1,-13 0,-2 Z"/>
  </g>
  <g id="bullet-char-template-10004" transform="scale(0.00048828125,-0.00048828125)">
   <path d="M 285,-33 C 182,-33 111,30 74,156 52,228 41,333 41,471 41,549 55,616 82,672 116,743 169,778 240,778 293,778 328,747 346,684 L 369,508 C 377,444 397,411 428,410 L 1163,1116 C 1174,1127 1196,1133 1229,1133 1271,1133 1292,1118 1292,1087 L 1292,965 C 1292,929 1282,901 1262,881 L 442,47 C 390,-6 338,-33 285,-33 Z"/>
  </g>
  <g id="bullet-char-template-9679" transform="scale(0.00048828125,-0.00048828125)">
   <path d="M 813,0 C 632,0 489,54 383,161 276,268 223,411 223,592 223,773 276,916 383,1023 489,1130 632,1184 813,1184 992,1184 1136,1130 1245,1023 1353,916 1407,772 1407,592 1407,412 1353,268 1245,161 1136,54 992,0 813,0 Z"/>
  </g>
  <g id="bullet-char-template-8226" transform="scale(0.00048828125,-0.00048828125)">
   <path d="M 346,457 C 273,457 209,483 155,535 101,586 74,649 74,723 74,796 101,859 155,911 209,963 273,989 346,989 419,989 480,963 531,910 582,859 608,796 608,723 608,648 583,586 532,535 482,483 420,457 346,457 Z"/>
  </g>
  <g id="bullet-char-template-8211" transform="scale(0.00048828125,-0.00048828125)">
   <path d="M -4,459 L 1135,459 1135,606 -4,606 -4,459 Z"/>
  </g>
  <g id="bullet-char-template-61548" transform="scale(0.00048828125,-0.00048828125)">
   <path d="M 173,740 C 173,903 231,1043 346,1159 462,1274 601,1332 765,1332 928,1332 1067,1274 1183,1159 1299,1043 1357,903 1357,740 1357,577 1299,437 1183,322 1067,206 928,148 765,148 601,148 462,206 346,322 231,437 173,577 173,740 Z"/>
  </g>
 </defs>
 <defs class="TextEmbeddedBitmaps"/>
 <g>
  <g id="id2" class="Master_Slide">
   <g id="bg-id2" class="Background"/>
   <g id="bo-id2" class="BackgroundObjects"/>
  </g>
 </g>
 <g class="SlideGroup">
  <g>
   <g id="container-id1">
    <g id="id1" class="Slide" clip-path="url(#presentation_clip_path)">
     <g class="Page">
      <g class="com.sun.star.drawing.PolyPolygonShape">
       <g id="id3">
        <rect class="BoundingBox" stroke="none" fill="none" x="4995" y="4976" width="20119" height="10585"/>
       </g>
      </g>
      <g class="com.sun.star.drawing.ClosedBezierShape">
       <g id="id4">
        <rect class="BoundingBox" stroke="none" fill="none" x="4995" y="4976" width="20119" height="10583"/>
        <path fill="rgb(144,231,252)" stroke="none" d="M 21140,15558 L 8967,15558 C 7072,15558 5496,14098 5354,12207 L 4995,4976 25112,4976 24753,12207 C 24611,14098 23036,15558 21140,15558 Z M 21140,15558 L 21140,15558 Z"/>
       </g>
      </g>
      <g class="com.sun.star.drawing.PolyPolygonShape">
       <g id="id5">
        <rect class="BoundingBox" stroke="none" fill="none" x="5759" y="4976" width="19355" height="10585"/>
       </g>
      </g>
      <g class="com.sun.star.drawing.ClosedBezierShape">
       <g id="id6">
        <rect class="BoundingBox" stroke="none" fill="none" x="5760" y="4976" width="19353" height="10583"/>
        <path fill="rgb(88,213,234)" stroke="none" d="M 19791,4976 L 19529,10271 C 19386,12162 17810,13623 15915,13623 L 5760,13623 C 6369,14780 7583,15558 8965,15558 L 21138,15558 C 23034,15558 24609,14098 24752,12207 L 25112,4976 19791,4976 Z M 19791,4976 L 19791,4976 Z"/>
       </g>
      </g>
      <g class="com.sun.star.drawing.PolyPolygonShape">
       <g id="id7">
        <rect class="BoundingBox" stroke="none" fill="none" x="3063" y="1881" width="23985" height="3091"/>
       </g>
      </g>
      <g class="com.sun.star.drawing.ClosedBezierShape">
       <g id="id8">
        <rect class="BoundingBox" stroke="none" fill="none" x="3062" y="1881" width="23983" height="3090"/>
        <path fill="rgb(70,91,125)" stroke="none" d="M 26504,4970 L 3603,4970 C 3304,4970 3063,4729 3063,4430 L 3063,2421 C 3063,2122 3304,1881 3603,1881 L 26504,1881 C 26803,1881 27044,2122 27044,2421 L 27044,4430 C 27044,4729 26803,4970 26504,4970 Z M 26504,4970 L 26504,4970 Z"/>
       </g>
      </g>
      <g class="com.sun.star.drawing.PolyPolygonShape">
       <g id="id9">
        <rect class="BoundingBox" stroke="none" fill="none" x="3063" y="1881" width="23985" height="3091"/>
       </g>
      </g>
      <g class="com.sun.star.drawing.ClosedBezierShape">
       <g id="id10">
        <rect class="BoundingBox" stroke="none" fill="none" x="3062" y="1881" width="23983" height="3090"/>
        <path fill="rgb(58,76,104)" stroke="none" d="M 26489,1881 L 24387,1881 24387,3139 C 24387,3446 24139,3694 23832,3694 L 3063,3694 3063,4415 C 3063,4722 3311,4970 3618,4970 L 26489,4970 C 26796,4970 27044,4722 27044,4415 L 27044,2436 C 27044,2129 26796,1881 26489,1881 Z M 26489,1881 L 26489,1881 Z"/>
       </g>
      </g>
      <g class="com.sun.star.drawing.PolyPolygonShape">
       <g id="id11">
        <rect class="BoundingBox" stroke="none" fill="none" x="12304" y="3125" width="5501" height="1847"/>
       </g>
      </g>
      <g class="com.sun.star.drawing.ClosedBezierShape">
       <g id="id12">
        <rect class="BoundingBox" stroke="none" fill="none" x="12304" y="3127" width="5499" height="1845"/>
        <path fill="rgb(103,127,158)" stroke="none" d="M 16699,3127 L 13407,3127 C 12797,3127 12304,3621 12304,4230 L 12304,4971 17802,4971 17802,4230 C 17802,3621 17309,3127 16699,3127 Z M 16699,3127 L 16699,3127 Z"/>
       </g>
      </g>
      <g class="com.sun.star.drawing.PolyPolygonShape">
       <g id="id13">
        <rect class="BoundingBox" stroke="none" fill="none" x="14423" y="6608" width="8701" height="7779"/>
       </g>
      </g>
      <g class="com.sun.star.drawing.ClosedBezierShape">
       <g id="id14">
        <rect class="BoundingBox" stroke="none" fill="none" x="14423" y="6611" width="8699" height="7776"/>
        <path fill="rgb(255,163,0)" stroke="none" d="M 20721,14385 L 16825,14385 C 15498,14385 14423,13309 14423,11984 L 14423,9013 C 14423,7686 15498,6611 16825,6611 L 20721,6611 C 22047,6611 23121,7686 23121,9013 L 23121,11984 C 23121,13309 22047,14385 20721,14385 Z M 20721,14385 L 20721,14385 Z"/>
       </g>
      </g>
      <g class="com.sun.star.drawing.PolyPolygonShape">
       <g id="id15">
        <rect class="BoundingBox" stroke="none" fill="none" x="15109" y="6608" width="8015" height="7779"/>
       </g>
      </g>
      <g class="com.sun.star.drawing.ClosedBezierShape">
       <g id="id16">
        <rect class="BoundingBox" stroke="none" fill="none" x="15109" y="6611" width="8014" height="7776"/>
        <path fill="rgb(255,139,0)" stroke="none" d="M 20655,6611 L 19710,6611 19528,10273 C 19386,12164 17809,13625 15914,13625 L 15109,13625 C 15558,14093 16189,14385 16889,14385 L 20655,14385 C 22018,14385 23122,13281 23122,11918 L 23122,9078 C 23122,7715 22018,6611 20655,6611 Z M 20655,6611 L 20655,6611 Z"/>
       </g>
      </g>
      <g class="com.sun.star.drawing.PolyPolygonShape">
       <g id="id17">
        <rect class="BoundingBox" stroke="none" fill="none" x="15068" y="3125" width="2736" height="1847"/>
       </g>
      </g>
      <g class="com.sun.star.drawing.ClosedBezierShape">
       <g id="id18">
        <rect class="BoundingBox" stroke="none" fill="none" x="15068" y="3127" width="2734" height="1845"/>
        <path fill="rgb(88,116,158)" stroke="none" d="M 16698,3127 L 15068,3127 C 15678,3127 16171,3621 16171,4230 L 16171,4971 17801,4971 17801,4230 C 17801,3621 17307,3127 16698,3127 Z M 16698,3127 L 16698,3127 Z"/>
       </g>
      </g>
      <g class="com.sun.star.drawing.PolyPolygonShape">
       <g id="id19">
        <rect class="BoundingBox" stroke="none" fill="none" x="6755" y="8593" width="6574" height="5782"/>
       </g>
      </g>
      <g class="com.sun.star.drawing.ClosedBezierShape">
       <g id="id20">
        <rect class="BoundingBox" stroke="none" fill="none" x="6755" y="8592" width="6572" height="5782"/>
        <path fill="rgb(237,80,10)" stroke="none" d="M 11408,8593 C 10958,8593 10302,8996 10101,9126 10064,9150 10015,9150 9979,9126 9778,8996 9121,8593 8673,8593 7614,8593 6755,9452 6755,10511 6755,11570 7614,14373 8673,14373 9209,14373 9623,14155 10040,14155 10457,14155 10872,14373 11408,14373 12467,14373 13325,11570 13325,10511 13325,9452 12467,8593 11408,8593 Z M 11408,8593 L 11408,8593 Z"/>
       </g>
      </g>
      <g class="com.sun.star.drawing.PolyPolygonShape">
       <g id="id21">
        <rect class="BoundingBox" stroke="none" fill="none" x="7715" y="13621" width="4653" height="754"/>
       </g>
      </g>
      <g class="com.sun.star.drawing.ClosedBezierShape">
       <g id="id22">
        <rect class="BoundingBox" stroke="none" fill="none" x="7715" y="13621" width="4651" height="753"/>
        <path fill="rgb(219,51,23)" stroke="none" d="M 11408,14373 C 11756,14373 12084,14067 12365,13621 L 7715,13621 C 7996,14067 8323,14373 8673,14373 9209,14373 9623,14155 10040,14155 10457,14155 10872,14373 11408,14373 Z M 11408,14373 L 11408,14373 Z"/>
       </g>
      </g>
      <g class="com.sun.star.drawing.PolyPolygonShape">
       <g id="id23">
        <rect class="BoundingBox" stroke="none" fill="none" x="9584" y="7016" width="2177" height="2625"/>
       </g>
      </g>
      <g class="com.sun.star.drawing.ClosedBezierShape">
       <g id="id24">
        <rect class="BoundingBox" stroke="none" fill="none" x="9584" y="7016" width="2175" height="2624"/>
        <path fill="rgb(130,74,37)" stroke="none" d="M 10039,9638 C 9788,9638 9585,9436 9585,9185 L 9585,8737 C 9584,8641 9596,7971 10076,7484 10287,7271 10669,7016 11303,7016 11554,7016 11757,7219 11757,7470 11757,7720 11554,7923 11303,7923 10552,7923 10492,8541 10492,8730 L 10492,9185 C 10492,9436 10289,9638 10039,9638 Z M 10039,9638 L 10039,9638 Z"/>
       </g>
      </g>
      <g class="com.sun.star.drawing.PolyPolygonShape">
       <g id="id25">
        <rect class="BoundingBox" stroke="none" fill="none" x="8081" y="6308" width="2139" height="2159"/>
       </g>
      </g>
      <g class="com.sun.star.drawing.ClosedBezierShape">
       <g id="id26">
        <rect class="BoundingBox" stroke="none" fill="none" x="8081" y="6308" width="2138" height="2158"/>
        <path fill="rgb(52,184,54)" stroke="none" d="M 9664,6875 C 10106,7321 10198,7988 10217,8299 10222,8393 10143,8471 10050,8464 9739,8443 9073,8343 8633,7897 8192,7450 8100,6785 8081,6474 8076,6379 8154,6302 8248,6308 8559,6330 9224,6430 9664,6875 Z M 9664,6875 L 9664,6875 Z"/>
       </g>
      </g>
      <g class="com.sun.star.drawing.PolyPolygonShape">
       <g id="id27">
        <rect class="BoundingBox" stroke="none" fill="none" x="8097" y="6308" width="2123" height="2159"/>
       </g>
      </g>
      <g class="com.sun.star.drawing.ClosedBezierShape">
       <g id="id28">
        <rect class="BoundingBox" stroke="none" fill="none" x="8097" y="6308" width="2122" height="2158"/>
        <path fill="rgb(26,168,26)" stroke="none" d="M 10217,8299 C 10199,7988 10106,7322 9666,6875 9224,6430 8559,6330 8248,6308 8182,6304 8124,6340 8097,6395 8392,6474 8727,6615 8984,6875 9424,7322 9518,7988 9535,8299 9538,8327 9531,8353 9519,8377 9730,8432 9921,8455 10050,8464 10145,8471 10222,8393 10217,8299 Z M 10217,8299 L 10217,8299 Z"/>
       </g>
      </g>
      <g class="com.sun.star.drawing.PolyPolygonShape">
       <g id="id29">
        <rect class="BoundingBox" stroke="none" fill="none" x="8549" y="18304" width="13083" height="7095"/>
       </g>
      </g>
      <g class="com.sun.star.drawing.ClosedBezierShape">
       <g id="id30">
        <rect class="BoundingBox" stroke="none" fill="none" x="8549" y="18304" width="13082" height="7095"/>
        <path fill="rgb(221,82,152)" stroke="none" d="M 16534,25397 L 13645,25397 C 10836,25397 8549,23110 8549,20299 L 8549,18304 10650,18304 10650,20299 C 10650,21951 11993,23295 13645,23295 L 16534,23295 C 18186,23295 19529,21951 19529,20299 L 19529,18304 21630,18304 21630,20299 C 21630,23110 19344,25397 16534,25397 Z M 16534,25397 L 16534,25397 Z"/>
       </g>
      </g>
      <g class="com.sun.star.drawing.PolyPolygonShape">
       <g id="id31">
        <rect class="BoundingBox" stroke="none" fill="none" x="10056" y="18304" width="11578" height="7095"/>
       </g>
      </g>
      <g class="com.sun.star.drawing.ClosedBezierShape">
       <g id="id32">
        <rect class="BoundingBox" stroke="none" fill="none" x="10057" y="18304" width="11575" height="7095"/>
        <path fill="rgb(201,63,132)" stroke="none" d="M 20782,18304 L 20782,19620 C 20782,22431 18495,24717 15685,24717 L 12797,24717 C 11789,24717 10849,24422 10057,23915 10978,24830 12247,25397 13645,25397 L 16534,25397 C 19344,25397 21631,23110 21631,20299 L 21631,18304 20782,18304 Z M 20782,18304 L 20782,18304 Z"/>
       </g>
      </g>
      <g class="com.sun.star.drawing.PolyPolygonShape">
       <g id="id33">
        <rect class="BoundingBox" stroke="none" fill="none" x="12155" y="16807" width="5799" height="2010"/>
       </g>
      </g>
      <g class="com.sun.star.drawing.ClosedBezierShape">
       <g id="id34">
        <rect class="BoundingBox" stroke="none" fill="none" x="12156" y="16808" width="5797" height="2007"/>
        <path fill="rgb(255,158,201)" stroke="none" d="M 16789,16808 L 13319,16808 C 12676,16808 12156,17328 12156,17971 L 12156,18814 17952,18814 17952,17971 C 17952,17328 17432,16808 16789,16808 Z M 16789,16808 L 16789,16808 Z"/>
       </g>
      </g>
      <g class="com.sun.star.drawing.PolyPolygonShape">
       <g id="id35">
        <rect class="BoundingBox" stroke="none" fill="none" x="15071" y="16807" width="2885" height="2010"/>
       </g>
      </g>
      <g class="com.sun.star.drawing.ClosedBezierShape">
       <g id="id36">
        <rect class="BoundingBox" stroke="none" fill="none" x="15071" y="16808" width="2882" height="2007"/>
        <path fill="rgb(255,136,185)" stroke="none" d="M 16789,16808 L 15071,16808 C 15714,16808 16234,17328 16234,17971 L 16234,18814 17952,18814 17952,17971 C 17952,17328 17432,16808 16789,16808 Z M 16789,16808 L 16789,16808 Z"/>
       </g>
      </g>
      <g class="com.sun.star.drawing.PolyPolygonShape">
       <g id="id37">
        <rect class="BoundingBox" stroke="none" fill="none" x="4817" y="16375" width="20478" height="3669"/>
       </g>
      </g>
      <g class="com.sun.star.drawing.PolyPolygonShape">
       <g id="id38">
        <rect class="BoundingBox" stroke="none" fill="none" x="4817" y="16375" width="20477" height="3667"/>
        <path fill="rgb(76,119,159)" stroke="none" d="M 4817,16375 L 25293,16375 25293,20041 4817,20041 4817,16375 Z M 4817,16375 L 4817,16375 Z"/>
       </g>
      </g>
      <g class="com.sun.star.drawing.PolyPolygonShape">
       <g id="id39">
        <rect class="BoundingBox" stroke="none" fill="none" x="3" y="15465" width="30109" height="1822"/>
       </g>
      </g>
      <g class="com.sun.star.drawing.ClosedBezierShape">
       <g id="id40">
        <rect class="BoundingBox" stroke="none" fill="none" x="3" y="15465" width="30107" height="1821"/>
        <path fill="rgb(209,255,255)" stroke="none" d="M 29200,17285 L 911,17285 C 410,17285 3,16878 3,16375 3,15872 410,15465 911,15465 L 29200,15465 C 29703,15465 30109,15872 30109,16375 30109,16878 29703,17285 29200,17285 Z M 29200,17285 L 29200,17285 Z"/>
       </g>
      </g>
      <g class="com.sun.star.drawing.PolyPolygonShape">
       <g id="id41">
        <rect class="BoundingBox" stroke="none" fill="none" x="27380" y="15467" width="2731" height="1822"/>
       </g>
      </g>
      <g class="com.sun.star.drawing.ClosedBezierShape">
       <g id="id42">
        <rect class="BoundingBox" stroke="none" fill="none" x="27381" y="15467" width="2729" height="1821"/>
        <path fill="rgb(172,224,224)" stroke="none" d="M 29199,15467 L 27381,15467 C 27883,15467 28291,15874 28291,16377 28291,16878 27883,17287 27381,17287 L 29199,17287 C 29702,17287 30109,16878 30109,16377 30109,15874 29702,15467 29199,15467 Z M 29199,15467 L 29199,15467 Z"/>
       </g>
      </g>
      <g class="com.sun.star.drawing.PolyPolygonShape">
       <g id="id43">
        <rect class="BoundingBox" stroke="none" fill="none" x="2425" y="19131" width="25262" height="10182"/>
       </g>
      </g>
      <g class="com.sun.star.drawing.ClosedBezierShape">
       <g id="id44">
        <rect class="BoundingBox" stroke="none" fill="none" x="2425" y="19131" width="25261" height="10179"/>
        <path fill="rgb(209,255,255)" stroke="none" d="M 26474,29309 L 3637,29309 C 2968,29309 2425,28767 2425,28097 L 2425,20343 C 2425,19674 2968,19131 3637,19131 L 26474,19131 C 27143,19131 27685,19674 27685,20343 L 27685,28097 C 27685,28767 27143,29309 26474,29309 Z M 26474,29309 L 26474,29309 Z"/>
       </g>
      </g>
      <g class="com.sun.star.drawing.PolyPolygonShape">
       <g id="id45">
        <rect class="BoundingBox" stroke="none" fill="none" x="24655" y="19131" width="3033" height="10182"/>
       </g>
      </g>
      <g class="com.sun.star.drawing.ClosedBezierShape">
       <g id="id46">
        <rect class="BoundingBox" stroke="none" fill="none" x="24655" y="19131" width="3031" height="10179"/>
        <path fill="rgb(172,224,224)" stroke="none" d="M 26473,19131 L 24655,19131 C 25325,19131 25867,19674 25867,20343 L 25867,28097 C 25867,28767 25325,29309 24655,29309 L 26473,29309 C 27142,29309 27685,28767 27685,28097 L 27685,20343 C 27685,19674 27142,19131 26473,19131 Z M 26473,19131 L 26473,19131 Z"/>
       </g>
      </g>
      <g class="com.sun.star.drawing.PolyPolygonShape">
       <g id="id47">
        <rect class="BoundingBox" stroke="none" fill="none" x="6573" y="21220" width="8002" height="6062"/>
       </g>
      </g>
      <g class="com.sun.star.drawing.ClosedBezierShape">
       <g id="id48">
        <rect class="BoundingBox" stroke="none" fill="none" x="6575" y="21220" width="8000" height="6061"/>
        <path fill="rgb(76,119,159)" stroke="none" d="M 14331,27280 L 6818,27280 C 6683,27280 6575,27172 6575,27037 L 6575,21463 C 6575,21328 6683,21220 6818,21220 L 14331,21220 C 14464,21220 14573,21328 14573,21463 L 14573,27037 C 14573,27172 14464,27280 14331,27280 Z M 14331,27280 L 14331,27280 Z"/>
       </g>
      </g>
      <g class="com.sun.star.drawing.PolyPolygonShape">
       <g id="id49">
        <rect class="BoundingBox" stroke="none" fill="none" x="16385" y="21220" width="2429" height="6062"/>
       </g>
      </g>
      <g class="com.sun.star.drawing.ClosedBezierShape">
       <g id="id50">
        <rect class="BoundingBox" stroke="none" fill="none" x="16387" y="21220" width="2426" height="6061"/>
        <path fill="rgb(96,217,254)" stroke="none" d="M 18569,27280 L 16630,27280 C 16495,27280 16387,27172 16387,27037 L 16387,21463 C 16387,21328 16495,21220 16630,21220 L 18569,21220 C 18704,21220 18812,21328 18812,21463 L 18812,27037 C 18812,27172 18704,27280 18569,27280 Z M 18569,27280 L 18569,27280 Z"/>
       </g>
      </g>
     </g>
    </g>
   </g>
  </g>
 </g>
</svg>