<svg version="1.2" width="853.342" height="853.342" viewBox="0 0 22578 22578" preserveAspectRatio="xMidYMid" fill-rule="evenodd" stroke-width="28.222" stroke-linejoin="round" xmlns="http://www.w3.org/2000/svg"><defs class="ClipPathGroup"><clipPath id="a" clipPathUnits="userSpaceOnUse"><path d="M0 0h22578v22578H0z"/></clipPath></defs><g class="SlideGroup"><g class="Slide" clip-path="url(#a)"><g class="Page"><g class="com.sun.star.drawing.ClosedBezierShape"><path class="BoundingBox" fill="none" d="M3746 3732h15088v7937H3746z"/><path fill="#90E7FC" d="M15854 11668H6725c-1421 0-2603-1095-2710-2513l-269-5423h15087l-269 5423c-107 1418-1288 2513-2710 2513zm0 0z"/></g><g class="com.sun.star.drawing.ClosedBezierShape"><path class="BoundingBox" fill="none" d="M4320 3732h14514v7937H4320z"/><path fill="#58D5EA" d="M14843 3732l-197 3971c-107 1418-1289 2514-2710 2514H4320c457 867 1367 1451 2404 1451h9129c1422 0 2603-1095 2710-2513l270-5423h-3990zm0 0z"/></g><g class="com.sun.star.drawing.ClosedBezierShape"><path class="BoundingBox" fill="none" d="M2297 1411h17987v2317H2297z"/><path fill="#DD5298" d="M19877 3727H2702c-224 0-405-181-405-405V1816c0-224 181-405 405-405h17175c224 0 405 181 405 405v1506c0 224-181 405-405 405zm0 0z"/></g><g class="com.sun.star.drawing.ClosedBezierShape"><path class="BoundingBox" fill="none" d="M2297 1411h17987v2317H2297z"/><path fill="#C93F84" d="M19866 1411h-1577v943c0 230-186 416-416 416H2297v541c0 230 186 416 416 416h17153c230 0 416-186 416-416V1827c0-230-186-416-416-416zm0 0z"/></g><g class="com.sun.star.drawing.ClosedBezierShape"><path class="BoundingBox" fill="none" d="M9228 2344h4124v1384H9228z"/><path fill="#FF9EC9" d="M12524 2345h-2469c-457 0-827 370-827 827v555h4123v-555c0-457-370-827-827-827zm0 0z"/></g><g class="com.sun.star.drawing.ClosedBezierShape"><path class="BoundingBox" fill="none" d="M10817 4957h6524v5832h-6524z"/><path fill="#FFA300" d="M15540 10788h-2922c-995 0-1801-807-1801-1801V6759c0-995 806-1801 1801-1801h2922c994 0 1800 806 1800 1801v2228c0 994-806 1801-1800 1801zm0 0z"/></g><g class="com.sun.star.drawing.ClosedBezierShape"><path class="BoundingBox" fill="none" d="M11332 4957h6010v5832h-6010z"/><path fill="#FF8B00" d="M15491 4958h-709l-136 2746c-107 1418-1289 2514-2710 2514h-604c337 351 810 570 1335 570h2824c1022 0 1850-828 1850-1850V6808c0-1022-828-1850-1850-1850zm0 0z"/></g><g class="com.sun.star.drawing.ClosedBezierShape"><path class="BoundingBox" fill="none" d="M11301 2344h2050v1384h-2050z"/><path fill="#FF88B9" d="M12523 2345h-1222c457 0 827 370 827 827v555h1222v-555c0-457-370-827-827-827zm0 0z"/></g><g class="com.sun.star.drawing.ClosedBezierShape"><path class="BoundingBox" fill="none" d="M5066 6445h4928v4335H5066z"/><path fill="#ED500A" d="M8555 6445c-337 0-829 302-980 400-28 18-64 18-91 0-151-98-644-400-980-400-794 0-1438 644-1438 1438s644 2896 1438 2896c402 0 713-163 1025-163 313 0 624 163 1026 163 794 0 1438-2102 1438-2896s-644-1438-1438-1438zm0 0z"/></g><g class="com.sun.star.drawing.ClosedBezierShape"><path class="BoundingBox" fill="none" d="M5786 10216h3488v564H5786z"/><path fill="#DB3317" d="M8555 10779c261 0 507-229 718-563H5786c211 334 456 563 718 563 402 0 713-163 1025-163 313 0 624 163 1026 163zm0 0z"/></g><g class="com.sun.star.drawing.ClosedBezierShape"><path class="BoundingBox" fill="none" d="M7188 5262h1631v1967H7188z"/><path fill="#824A25" d="M7529 7228c-188 0-340-152-340-340v-336c-1-72 8-574 368-939 158-160 445-351 920-351 188 0 340 152 340 340s-152 340-340 340c-563 0-608 463-608 605v341c0 188-152 340-340 340zm0 0z"/></g><g class="com.sun.star.drawing.ClosedBezierShape"><path class="BoundingBox" fill="none" d="M6061 4731h1603v1618H6061z"/><path fill="#34B836" d="M7248 5156c331 334 400 834 414 1067 4 71-55 129-125 124-233-16-732-91-1062-425-331-335-400-834-414-1067-4-71 55-129 125-124 233 16 732 91 1062 425zm0 0z"/></g><g class="com.sun.star.drawing.ClosedBezierShape"><path class="BoundingBox" fill="none" d="M6073 4731h1591v1618H6073z"/><path fill="#1AA81A" d="M7662 6223c-13-233-83-732-413-1067-331-334-830-409-1063-425-49-3-93 24-113 65 221 59 472 165 665 360 330 335 400 834 413 1067 2 21-3 41-12 59 158 41 301 58 398 65 71 5 129-53 125-124zm0 0z"/></g><g class="com.sun.star.drawing.ClosedBezierShape"><path class="BoundingBox" fill="none" d="M6412 13728h9811v5320H6412z"/><path fill="#DD5298" d="M12400 19047h-2166c-2107 0-3822-1715-3822-3823v-1496h1576v1496c0 1239 1007 2247 2246 2247h2166c1239 0 2246-1008 2246-2247v-1496h1576v1496c0 2108-1714 3823-3822 3823zm0 0z"/></g><g class="com.sun.star.drawing.ClosedBezierShape"><path class="BoundingBox" fill="none" d="M7543 13728h8681v5320H7543z"/><path fill="#C93F84" d="M15586 13728v987c0 2108-1715 3822-3822 3822H9598c-756 0-1461-221-2055-601 691 686 1642 1111 2691 1111h2166c2108 0 3823-1715 3823-3823v-1496h-637zm0 0z"/></g><g class="com.sun.star.drawing.ClosedBezierShape"><path class="BoundingBox" fill="none" d="M9117 12605h4347v1506H9117z"/><path fill="#FF9EC9" d="M12591 12606H9989c-482 0-872 390-872 872v632h4346v-632c0-482-390-872-872-872zm0 0z"/></g><g class="com.sun.star.drawing.ClosedBezierShape"><path class="BoundingBox" fill="none" d="M11303 12605h2162v1506h-2162z"/><path fill="#FF88B9" d="M12591 12606h-1288c482 0 872 390 872 872v632h1288v-632c0-482-390-872-872-872zm0 0z"/></g><g class="com.sun.star.drawing.PolyPolygonShape"><path class="BoundingBox" fill="none" d="M3613 12281h15357v2750H3613z"/><path fill="#4C779F" d="M3613 12281h15356v2749H3613v-2749zm0 0z"/></g><g class="com.sun.star.drawing.ClosedBezierShape"><path class="BoundingBox" fill="none" d="M2 11599h22580v1365H2z"/><path fill="#D1FFFF" d="M21899 12963H683c-376 0-681-305-681-682s305-682 681-682h21216c377 0 682 305 682 682s-305 682-682 682zm0 0z"/></g><g class="com.sun.star.drawing.ClosedBezierShape"><path class="BoundingBox" fill="none" d="M20535 11600h2047v1365h-2047z"/><path fill="#ACE0E0" d="M21899 11600h-1363c376 0 682 305 682 682 0 376-306 682-682 682h1363c377 0 682-306 682-682 0-377-305-682-682-682zm0 0z"/></g><g class="com.sun.star.drawing.ClosedBezierShape"><path class="BoundingBox" fill="none" d="M1819 14348h18945v7635H1819z"/><path fill="#D1FFFF" d="M19855 21981H2728c-502 0-909-407-909-909v-5815c0-502 407-909 909-909h17127c502 0 908 407 908 909v5815c0 502-406 909-908 909zm0 0z"/></g><g class="com.sun.star.drawing.ClosedBezierShape"><path class="BoundingBox" fill="none" d="M18491 14348h2273v7635h-2273z"/><path fill="#ACE0E0" d="M19854 14348h-1363c502 0 909 407 909 909v5815c0 502-407 909-909 909h1363c502 0 909-407 909-909v-5815c0-502-407-909-909-909zm0 0z"/></g><g class="com.sun.star.drawing.ClosedBezierShape"><path class="BoundingBox" fill="none" d="M4930 15915h6000v4545H4930z"/><path fill="#4C779F" d="M10747 20459H5113c-101 0-182-81-182-182v-4180c0-101 81-182 182-182h5634c100 0 182 81 182 182v4180c0 101-82 182-182 182zm0 0z"/></g><g class="com.sun.star.drawing.ClosedBezierShape"><path class="BoundingBox" fill="none" d="M12289 15915h1820v4545h-1820z"/><path fill="#60D9FE" d="M13926 20459h-1454c-101 0-182-81-182-182v-4180c0-101 81-182 182-182h1454c101 0 182 81 182 182v4180c0 101-81 182-182 182zm0 0z"/></g></g></g></g></svg>