<svg height="512pt" viewBox="0 -32 512 512" width="512pt" xmlns="http://www.w3.org/2000/svg"><path d="m359.5 232.589844h-207c-32.234375 0-59.027344-24.84375-61.453125-56.992188l-6.105469-122.960937h342.117188l-6.105469 122.964843c-2.425781 32.144532-29.214844 56.988282-61.453125 56.988282zm0 0" fill="#90e7fc"/><path d="m336.589844 52.636719-4.472656 90.050781c-2.425782 32.148438-29.21875 56.992188-61.453126 56.992188h-172.6875c10.367188 19.660156 30.988282 32.910156 54.523438 32.910156h206.996094c32.238281 0 59.03125-24.84375 61.457031-56.988282l6.105469-122.964843zm0 0" fill="#58d5ea"/><path d="m408.792969 448.585938h-305.585938c-34.417969 0-63.023437-26.527344-65.613281-60.847657l-9.257812-122.667969h455.328124l-9.257812 122.667969c-2.59375 34.320313-31.195312 60.847657-65.613281 60.847657zm0 0" fill="#90e7fc"/><path d="m390.066406 265.070312-6.613281 87.609376c-2.589844 34.324218-31.191406 60.847656-65.609375 60.847656h-272.808594c11.082032 20.945312 33.074219 35.058594 58.171875 35.058594h305.585938c34.417969 0 63.023437-26.527344 65.613281-60.847657l9.257812-122.667969zm0 0" fill="#58d5ea"/><path d="m450.734375 52.496094h-389.46875c-5.070313 0-9.179687-4.109375-9.179687-9.179688v-34.132812c0-5.074219 4.109374-9.183594 9.179687-9.183594h389.46875c5.070313 0 9.179687 4.109375 9.179687 9.183594v34.132812c0 5.070313-4.109374 9.179688-9.179687 9.179688zm0 0" fill="#dd5298"/><path d="m450.484375 0h-35.761719v21.382812c0 5.207032-4.226562 9.429688-9.433594 9.429688h-353.203124v12.253906c0 5.210938 4.222656 9.433594 9.429687 9.433594h388.96875c5.207031 0 9.429687-4.222656 9.429687-9.433594v-33.636718c0-5.207032-4.222656-9.429688-9.429687-9.429688zm0 0" fill="#c93f84"/><path d="m283.988281 21.171875h-55.976562c-10.355469 0-18.746094 8.390625-18.746094 18.742187v12.582032h93.46875v-12.582032c0-10.351562-8.390625-18.742187-18.746094-18.742187zm0 0" fill="#ff9ec9"/><path d="m37.59375 387.738281c2.59375 34.320313 31.195312 60.847657 65.613281 60.847657h305.585938c34.417969 0 63.019531-26.527344 65.613281-60.847657l3.414062-45.253906c-10.628906-1.816406-12.640624-8.179687-26.710937-8.179687-16.40625 0-16.40625 8.664062-32.8125 8.664062s-16.40625-8.664062-32.816406-8.664062c-16.40625 0-16.40625 8.664062-32.808594 8.664062-16.40625 0-16.40625-8.664062-32.8125-8.664062s-16.40625 8.664062-32.808594 8.664062c-16.402343 0-16.402343-8.664062-32.808593-8.664062-16.398438 0-16.398438 8.664062-32.800782 8.664062-16.40625 0-16.40625-8.664062-32.808594-8.664062-16.40625 0-16.40625 8.664062-32.808593 8.664062-16.40625 0-16.40625-8.664062-32.808594-8.664062-16.40625 0-16.40625 8.664062-32.808594 8.664062-16.402343 0-16.402343-8.664062-32.808593-8.664062-12.410157 0-15.433594 4.957031-23.28125 7.371093zm0 0" fill="#ff9ec9"/><path d="m45.035156 413.527344c11.082032 20.949218 33.074219 35.058594 58.171875 35.058594h305.585938c34.417969 0 63.019531-26.523438 65.613281-60.847657l3.414062-45.253906c-10.628906-1.816406-12.640624-8.179687-26.710937-8.179687-16.40625 0-16.40625 8.664062-32.8125 8.664062s-16.40625-8.664062-32.816406-8.664062c-.21875 0-.425781.007812-.640625.011718l-1.386719 18.367188c-2.589844 34.320312-31.191406 60.847656-65.609375 60.847656h-272.808594zm0 0" fill="#ff88b9"/><path d="m352.386719 212.605469h-66.242188c-22.554687 0-40.835937-18.28125-40.835937-40.832031v-50.515626c0-22.550781 18.285156-40.832031 40.835937-40.832031h66.242188c22.550781 0 40.832031 18.28125 40.832031 40.832031v50.515626c0 22.550781-18.28125 40.832031-40.832031 40.832031zm0 0" fill="#ffa300"/><path d="m351.277344 80.425781h-16.066406l-3.09375 62.261719c-2.425782 32.144531-29.21875 56.992188-61.453126 56.992188h-13.683593c7.632812 7.960937 18.371093 12.925781 30.273437 12.925781h64.023438c23.164062 0 41.941406-18.777344 41.941406-41.941407v-48.296874c0-23.164063-18.777344-41.941407-41.941406-41.941407zm0 0" fill="#ff8b00"/><path d="m281.167969 399.882812h-49.117188c-47.785156 0-86.664062-38.878906-86.664062-86.664062v-33.929688h35.730469v33.929688c0 28.085938 22.847656 50.933594 50.933593 50.933594h49.117188c28.085937 0 50.933593-22.847656 50.933593-50.933594v-33.929688h35.730469v33.929688c.003907 47.785156-38.875 86.664062-86.664062 86.664062zm0 0" fill="#dd5298"/><path d="m353.398438 279.289062v22.378907c0 47.789062-38.878907 86.664062-86.667969 86.664062h-49.113281c-17.140626 0-33.121094-5.019531-46.585938-13.640625 15.671875 15.558594 37.242188 25.191406 61.023438 25.191406h49.113281c47.789062 0 86.667969-38.878906 86.667969-86.664062v-33.929688zm0 0" fill="#c93f84"/><path d="m502.816406 287.929688h-493.632812c-5.074219 0-9.183594-4.109376-9.183594-9.183594v-36.972656c0-5.070313 4.109375-9.183594 9.183594-9.183594h493.632812c5.070313 0 9.183594 4.113281 9.183594 9.183594v36.972656c0 5.070312-4.109375 9.183594-9.183594 9.183594zm0 0" fill="#dd5298"/><path d="m502.058594 232.589844h-38.144532v22.539062c0 5.492188-4.449218 9.941406-9.941406 9.941406h-453.972656v12.917969c0 5.492188 4.449219 9.941407 9.941406 9.941407h492.117188c5.492187 0 9.941406-4.449219 9.941406-9.941407v-35.457031c0-5.492188-4.449219-9.941406-9.941406-9.941406zm0 0" fill="#c93f84"/><path d="m285.503906 253.835938h-59.007812c-10.914063 0-19.761719 8.84375-19.761719 19.757812v14.335938h98.53125v-14.335938c0-10.914062-8.847656-19.757812-19.761719-19.757812zm0 0" fill="#ff9ec9"/><path d="m283.988281 21.171875h-27.703125c10.355469 0 18.746094 8.390625 18.746094 18.742187v12.582032h27.703125v-12.582032c0-10.351562-8.390625-18.742187-18.746094-18.742187zm0 0" fill="#ff88b9"/><path d="m285.503906 253.835938h-29.203125c10.914063 0 19.761719 8.84375 19.761719 19.757812v14.335938h29.203125v-14.335938c0-10.914062-8.847656-19.757812-19.761719-19.757812zm0 0" fill="#ff88b9"/><path d="m193.980469 114.15625c-7.628907 0-18.789063 6.839844-22.210938 9.0625-.632812.410156-1.445312.410156-2.074219 0-3.425781-2.222656-14.585937-9.0625-22.210937-9.0625-18.007813 0-32.605469 14.597656-32.605469 32.601562 0 18.007813 14.597656 65.65625 32.605469 65.65625 9.101563 0 16.160156-3.6875 23.246094-3.6875 7.089843 0 14.144531 3.6875 23.25 3.6875 18.003906 0 32.601562-47.648437 32.601562-65.65625 0-18.003906-14.597656-32.601562-32.601562-32.601562zm0 0" fill="#ed500a"/><path d="m193.980469 212.414062c5.925781 0 11.484375-5.164062 16.273437-12.734374h-79.046875c4.789063 7.570312 10.347657 12.734374 16.277344 12.734374 9.105469 0 16.160156-3.683593 23.246094-3.683593 7.089843 0 14.144531 3.683593 23.25 3.683593zm0 0" fill="#db3317"/><path d="m170.730469 131.875c-4.253907 0-7.703125-3.449219-7.703125-7.703125v-7.625c-.015625-1.628906.1875-12.992187 8.332031-21.265625 3.578125-3.632812 10.101563-7.964844 20.855469-7.964844 4.253906 0 7.703125 3.449219 7.703125 7.703125 0 4.253907-3.449219 7.703125-7.703125 7.703125-12.761719 0-13.773438 10.503906-13.777344 13.722656v7.726563c-.003906 4.253906-3.449219 7.703125-7.707031 7.703125zm0 0" fill="#824a25"/><path d="m164.359375 84.921875c7.496094 7.574219 9.0625 18.902344 9.371094 24.179687.09375 1.597657-1.234375 2.914063-2.832031 2.800782-5.273438-.367188-16.582032-2.054688-24.078126-9.628906-7.496093-7.578126-9.0625-18.90625-9.371093-24.179688-.09375-1.601562 1.234375-2.914062 2.832031-2.804688 5.273438.367188 16.582031 2.054688 24.078125 9.632813zm0 0" fill="#34b836"/><path d="m173.730469 109.101562c-.308594-5.277343-1.875-16.605468-9.371094-24.179687-7.496094-7.578125-18.804687-9.265625-24.078125-9.632813-1.121094-.078124-2.105469.546876-2.566406 1.476563 5.015625 1.320313 10.691406 3.730469 15.066406 8.15625 7.492188 7.574219 9.058594 18.902344 9.371094 24.179687.027344.476563-.074219.929688-.269532 1.324219 3.578126.941407 6.820313 1.324219 9.015626 1.476563 1.597656.113281 2.925781-1.203125 2.832031-2.800782zm0 0" fill="#1aa81a"/></svg>