<svg height="512pt" viewBox="0 -62 512 512" width="512pt" xmlns="http://www.w3.org/2000/svg"><path d="m356.585938 177.339844h-201.171876c-55.371093 0-100.257812-44.886719-100.257812-100.253906v-50.890626h401.683594v50.890626c.003906 55.367187-44.882813 100.253906-100.253906 100.253906zm0 0" fill="#d9fcff"/><path d="m416.710938 26.195312v28.917969c0 55.371094-44.886719 100.257813-100.257813 100.257813h-201.171875c-9.269531 0-18.246094-1.265625-26.765625-3.621094 17.746094 15.910156 41.1875 25.59375 66.898437 25.59375h201.171876c55.371093 0 100.257812-44.886719 100.257812-100.257812v-50.890626zm0 0" fill="#b0dee2"/><path d="m375.890625 387.476562h-239.78125c-66 0-119.5-53.5-119.5-119.5v-60.914062h478.78125v60.914062c0 66-53.503906 119.5-119.5 119.5zm0 0" fill="#d9fcff"/><path d="m451.097656 207.0625v60.917969c0 65.996093-53.503906 119.496093-119.5 119.496093h44.292969c65.996094 0 119.5-53.5 119.5-119.496093v-60.917969zm0 0" fill="#b0dee2"/><path d="m457.171875 27.324219h-402.34375c-7.515625 0-13.605469-6.089844-13.605469-13.601563v-.117187c0-7.515625 6.089844-13.605469 13.605469-13.605469h402.347656c7.511719 0 13.601563 6.089844 13.601563 13.605469v.117187c0 7.511719-6.089844 13.601563-13.605469 13.601563zm0 0" fill="#3a4c68"/><path d="m457.171875 0h-37.25c7.511719 0 13.601563 6.089844 13.601563 13.605469v.117187c0 7.511719-6.089844 13.601563-13.601563 13.601563h37.25c7.515625 0 13.605469-6.089844 13.605469-13.601563v-.117187c0-7.515625-6.089844-13.605469-13.605469-13.605469zm0 0" fill="#283449"/><path d="m167.328125 0h177.34375v177.34375h-177.34375zm0 0" fill="#d2b393"/><path d="m316.453125 155.371094h-149.125v21.972656h177.34375v-26.003906c-8.953125 2.617187-18.417969 4.03125-28.21875 4.03125zm0 0" fill="#bf9984"/><g fill="#fff"><path d="m300.292969 48.425781h-88.585938c-4.269531 0-7.726562-3.457031-7.726562-7.726562s3.457031-7.726563 7.726562-7.726563h88.585938c4.269531 0 7.726562 3.457032 7.726562 7.726563s-3.457031 7.726562-7.726562 7.726562zm0 0"/><path d="m256 79.796875h-44.292969c-4.269531 0-7.726562-3.460937-7.726562-7.726563 0-4.269531 3.457031-7.726562 7.726562-7.726562h44.292969c4.269531 0 7.726562 3.457031 7.726562 7.726562 0 4.265626-3.457031 7.726563-7.726562 7.726563zm0 0"/><path d="m256 139.042969h-44.292969c-4.269531 0-7.726562-3.457031-7.726562-7.726563 0-4.269531 3.457031-7.726562 7.726562-7.726562h44.292969c4.269531 0 7.726562 3.457031 7.726562 7.726562 0 4.269532-3.457031 7.726563-7.726562 7.726563zm0 0"/></g><path d="m495.785156 208.667969h-479.570312c-8.953125 0-16.214844-7.261719-16.214844-16.214844v-.140625c0-8.953125 7.261719-16.214844 16.214844-16.214844h479.570312c8.953125 0 16.214844 7.261719 16.214844 16.214844v.140625c0 8.953125-7.261719 16.214844-16.214844 16.214844zm0 0" fill="#3a4c68"/><path d="m495.785156 176.097656h-58.167968c8.957031 0 16.21875 7.257813 16.21875 16.214844v.136719c0 8.957031-7.261719 16.214843-16.21875 16.214843h58.167968c8.957032 0 16.214844-7.257812 16.214844-16.214843v-.136719c0-8.957031-7.261719-16.214844-16.214844-16.214844zm0 0" fill="#283449"/><path d="m150.308594 176.097656h211.378906v211.378906h-211.378906zm0 0" fill="#d2b393"/><path d="m282.308594 229.660156h-88.585938c-4.269531 0-7.730468-3.460937-7.730468-7.726562 0-4.269532 3.460937-7.730469 7.730468-7.730469h88.585938c4.265625 0 7.726562 3.460937 7.726562 7.730469 0 4.265625-3.460937 7.726562-7.726562 7.726562zm0 0" fill="#fff"/><path d="m238.015625 261.027344h-44.292969c-4.269531 0-7.730468-3.457032-7.730468-7.726563 0-4.265625 3.460937-7.726562 7.730468-7.726562h44.292969c4.265625 0 7.726563 3.460937 7.726563 7.726562 0 4.269531-3.460938 7.726563-7.726563 7.726563zm0 0" fill="#fff"/><path d="m238.015625 352.929688h-44.292969c-4.269531 0-7.730468-3.460938-7.730468-7.730469 0-4.265625 3.460937-7.726563 7.730468-7.726563h44.292969c4.265625 0 7.726563 3.460938 7.726563 7.726563 0 4.269531-3.460938 7.730469-7.726563 7.730469zm0 0" fill="#fff"/></svg>