<svg height="512pt" viewBox="0 0 512 512.00128" width="512pt" xmlns="http://www.w3.org/2000/svg"><path d="m81.898438 292.054688h348.203124v62.328124h-348.203124zm0 0" fill="#4c779f"/><path d="m496.546875 307.507812h-481.09375c-8.535156 0-15.453125-6.917968-15.453125-15.453124 0-8.53125 6.917969-15.453126 15.453125-15.453126h481.09375c8.535156 0 15.453125 6.917969 15.453125 15.453126 0 8.535156-6.917969 15.453124-15.453125 15.453124zm0 0" fill="#d1ffff"/><path d="m496.546875 276.605469h-30.902344c8.53125 0 15.449219 6.917969 15.449219 15.453125 0 8.53125-6.917969 15.453125-15.449219 15.453125h30.902344c8.535156 0 15.453125-6.921875 15.453125-15.453125 0-8.535156-6.917969-15.453125-15.453125-15.453125zm0 0" fill="#ace0e0"/><path d="m450.191406 512h-388.378906c-11.378906 0-20.605469-9.226562-20.605469-20.605469v-131.859375c0-11.382812 9.226563-20.605468 20.605469-20.605468h388.378906c11.378906 0 20.601563 9.222656 20.601563 20.605468v131.859375c0 11.378907-9.222657 20.605469-20.601563 20.605469zm0 0" fill="#d1ffff"/><path d="m450.191406 338.929688h-30.90625c11.378906 0 20.601563 9.226562 20.601563 20.605468v131.863282c0 11.378906-9.222657 20.601562-20.601563 20.601562h30.90625c11.378906 0 20.601563-9.222656 20.601563-20.601562v-131.863282c0-11.382812-9.222657-20.605468-20.601563-20.605468zm0 0" fill="#ace0e0"/><path d="m165.1875 19.996094c-1.855469-3.703125-6.359375-5.203125-10.0625-3.351563-24.480469 12.238281-22.609375 41.105469-22.519531 42.328125.296875 3.9375 3.585937 6.9375 7.472656 6.9375.1875 0 .378906-.007812.566406-.019531 4.132813-.3125 7.230469-3.910156 6.921875-8.039063-.019531-.199218-1.316406-20.003906 14.265625-27.792968 3.703125-1.851563 5.207031-6.355469 3.355469-10.0625zm0 0" fill="#804d36"/><path d="m480.574219 111.773438c2.324219 0 4.183593 1.925781 4.125 4.25-2.253907 89.074218-75.183594 160.578124-164.828125 160.578124-89.644532 0-162.574219-71.507812-164.828125-160.578124-.058594-2.324219 1.800781-4.25 4.125-4.25zm0 0" fill="#3bd387"/><path d="m480.574219 111.773438h-30.90625c2.324219 0 4.183593 1.925781 4.125 4.25-2.121094 83.894531-66.941407 152.195312-149.375 159.855468 5.089843.472656 10.242187.726563 15.453125.726563 89.648437 0 162.574218-71.507813 164.828125-160.582031.058593-2.324219-1.800781-4.25-4.125-4.25zm0 0" fill="#37c487"/><path d="m453.835938 111.773438c0 73.84375-60.097657 133.925781-133.964844 133.925781-73.867188 0-133.964844-60.078125-133.964844-133.925781zm0 0" fill="#fe5555"/><path d="m422.933594 111.773438c0 68.621093-51.898438 125.34375-118.515625 133.027343 5.074219.585938 10.226562.898438 15.453125.898438 73.867187 0 133.96875-60.082031 133.96875-133.925781zm0 0" fill="#e84141"/><path d="m253.941406 163.285156c0 62.585938-50.734375 113.320313-113.320312 113.320313-62.585938 0-113.320313-50.734375-113.320313-113.320313 0-62.585937 50.734375-113.320312 113.320313-113.320312 62.585937 0 113.320312 50.734375 113.320312 113.320312zm0 0" fill="#fdbb46"/><path d="m140.621094 49.964844c-5.222656 0-10.363282.359375-15.398438 1.042968 55.300782 7.515626 97.925782 54.914063 97.925782 112.277344 0 57.359375-42.625 104.761719-97.925782 112.273438 5.035156.683594 10.175782 1.046875 15.398438 1.046875 62.585937 0 113.320312-50.734375 113.320312-113.320313 0-62.585937-50.738281-113.320312-113.320312-113.320312zm0 0" fill="#fc9d2a"/><path d="m171.207031.949219c-13.703125 3.949219-16.238281 19.460937-16.679687 23.777343-.074219.722657.136718 1.445313.585937 2.019532 2.671875 3.417968 13.074219 15.1875 26.777344 11.234375 12.761719-3.679688 22.601563-19.332031 26.039063-25.46875.773437-1.378907.269531-3.121094-1.117188-3.875-6.179688-3.363281-22.847656-11.371094-35.605469-7.6875zm0 0" fill="#3bd387"/><g fill="#eb7c0c"><path d="m103.378906 70.445312-5.296875 4.890626c-3.042969 2.808593-3.230469 7.554687-.425781 10.597656 1.480469 1.601562 3.496094 2.414062 5.515625 2.414062 1.820313 0 3.644531-.65625 5.085937-1.988281l5.296876-4.890625c3.042968-2.808594 3.234374-7.554688.425781-10.597656-2.808594-3.042969-7.554688-3.234375-10.601563-.425782zm0 0"/><path d="m183.867188 75.335938-5.296876-4.890626c-3.042968-2.808593-7.789062-2.617187-10.597656.425782-2.808594 3.042968-2.621094 7.789062.425782 10.597656l5.296874 4.890625c1.441407 1.332031 3.265626 1.988281 5.085938 1.988281 2.019531 0 4.035156-.8125 5.511719-2.414062 2.808593-3.042969 2.621093-7.789063-.425781-10.597656zm0 0"/><path d="m140.671875 77.828125c-4.144531 0-7.5 3.359375-7.5 7.5v7.335937c0 4.144532 3.355469 7.5 7.5 7.5 4.140625 0 7.5-3.355468 7.5-7.5v-7.335937c0-4.140625-3.359375-7.5-7.5-7.5zm0 0"/></g><path d="m243.636719 477.488281h-127.742188c-2.273437 0-4.121093-1.84375-4.121093-4.121093v-94.777344c0-2.273438 1.847656-4.121094 4.121093-4.121094h127.742188c2.277343 0 4.121093 1.847656 4.121093 4.121094v94.777344c0 2.277343-1.84375 4.121093-4.121093 4.121093zm0 0" fill="#4c779f"/><path d="m315.75 477.488281h-32.964844c-2.277344 0-4.121094-1.84375-4.121094-4.121093v-94.777344c0-2.273438 1.84375-4.121094 4.121094-4.121094h32.964844c2.277344 0 4.121094 1.847656 4.121094 4.121094v94.777344c0 2.277343-1.84375 4.121093-4.121094 4.121093zm0 0" fill="#60d9fe"/></svg>